<svg width="34" height="31" viewBox="0 0 34 31" fill="none" xmlns="http://www.w3.org/2000/svg">
<path fill-rule="evenodd" clip-rule="evenodd" d="M17.6214 0.593369C17.4839 0.642173 17.2587 0.786994 17.1208 0.915097C16.7109 1.2961 16.681 1.47919 16.681 3.61476V5.47538L16.5056 5.70097C15.9248 6.4476 13.4513 9.12675 11.201 11.4466L10.1825 12.4966L10.1832 20.54L10.1839 28.5834L11.7113 29.1193C13.3537 29.6955 13.9929 29.8919 14.7508 30.0532C16.122 30.3449 16.1391 30.3456 22.3405 30.3724C26.513 30.3905 28.3475 30.3779 28.646 30.3292C30.1831 30.0781 31.3526 28.7555 31.3502 27.271C31.3493 26.7023 31.2363 26.2805 30.9536 25.7902L30.7375 25.4155L31.1247 25.0385C31.5482 24.6261 31.8109 24.1737 31.9701 23.582C32.1645 22.8598 31.9971 21.8603 31.5817 21.2628L31.4249 21.0374L31.8258 20.6464C32.8464 19.6508 33.051 18.2266 32.3494 17.0025L32.1345 16.6277L32.4698 16.3125C33.7919 15.0699 33.8083 13.2079 32.5083 11.9511C32.249 11.7004 31.9332 11.4709 31.6797 11.3492C30.9323 10.9901 30.802 10.9806 26.6057 10.9794C24.509 10.9789 22.7935 10.9626 22.7935 10.9433C22.7935 10.9241 23.0292 10.1339 23.3174 9.18737L23.8413 7.46643L23.8033 6.32905C23.7584 4.98005 23.6396 4.43071 23.2111 3.5902C22.3161 1.83466 20.481 0.662748 18.4325 0.538564C18.0255 0.513886 17.8027 0.52895 17.6214 0.593369ZM0.53125 20.0717V29.7775H4.39175H8.25226V20.0717V10.366H4.39175H0.53125V20.0717Z" fill="#FF0000"/>
</svg>
