<svg width="41" height="42" viewBox="0 0 41 42" fill="none" xmlns="http://www.w3.org/2000/svg">
<path fill-rule="evenodd" clip-rule="evenodd" d="M25.7985 2.10133V3.78852L25.4562 3.96151C25.268 4.05665 25.0201 4.20053 24.9053 4.28127L24.6966 4.42804L23.3079 3.62736C22.5441 3.18704 21.8951 2.82787 21.8657 2.82924C21.8363 2.83069 21.0061 4.23173 20.0207 5.94281C18.246 9.02437 18.2307 9.05493 18.4101 9.16125C18.5097 9.22028 19.1348 9.58347 19.7991 9.96829L21.0071 10.668V11.3516V12.0352L19.7991 12.7348C19.1348 13.1197 18.5096 13.4828 18.41 13.5419C18.2304 13.6484 18.2426 13.6732 19.8068 16.3808C20.6747 17.8832 21.4352 19.2091 21.4967 19.3273C21.6063 19.5377 21.6008 19.5466 21.2323 19.7523C21.0253 19.8679 20.8165 19.9473 20.7684 19.9288C20.7203 19.9104 20.3919 19.6872 20.0387 19.433C19.4413 19.0029 18.179 18.3261 17.5955 18.1229L17.343 18.035V16.5028V14.9706H13.7193H10.0955V16.5191V18.0677L9.60533 18.2575C8.93631 18.5166 7.9099 19.09 7.2672 19.5637C6.97384 19.78 6.70931 19.9568 6.67927 19.9568C6.64915 19.9568 6.06266 19.6311 5.37584 19.233C4.68902 18.8349 4.10205 18.5102 4.07137 18.5114C4.02555 18.5133 1.89566 22.1583 0.738796 24.2148L0.441406 24.7433L1.76891 25.5067L3.09642 26.27L3.04407 26.5515C3.01532 26.7063 2.96491 27.1497 2.93222 27.5366C2.87601 28.2002 2.92755 29.3025 3.04407 29.9292L3.09642 30.2107L1.76891 30.974L0.441406 31.7374L0.738796 32.2659C1.89566 34.3224 4.02555 37.9674 4.07137 37.9693C4.10205 37.9705 4.68902 37.6458 5.37584 37.2477C6.06266 36.8496 6.64915 36.5239 6.67927 36.5239C6.70931 36.5239 6.97384 36.7007 7.2672 36.917C7.9099 37.3907 8.93631 37.9641 9.60533 38.2232L10.0955 38.413V40.0018V41.5905H13.7193H17.343V40.0181V38.4457L17.5955 38.3578C18.179 38.1546 19.4413 37.4778 20.0387 37.0477C20.3919 36.7935 20.7211 36.57 20.7703 36.5512C20.8194 36.5323 21.431 36.8478 22.1291 37.2523C22.8274 37.6567 23.4294 37.9569 23.4669 37.9192C23.5716 37.8144 27.0064 31.8548 27.0064 31.7781C27.0064 31.741 26.425 31.3741 25.7144 30.9627L24.4224 30.2147L24.4863 29.7704C24.5215 29.526 24.5503 28.8375 24.5503 28.2404C24.5503 27.6432 24.5215 26.9547 24.4863 26.7103L24.4224 26.266L25.7144 25.518C26.425 25.1066 27.0064 24.7399 27.0064 24.7031C27.0064 24.6663 26.2774 23.3753 25.3864 21.834C24.4954 20.2929 23.75 18.9902 23.7299 18.9392C23.7099 18.8882 23.9204 18.7188 24.1977 18.5628C24.6954 18.2826 24.7047 18.2808 24.908 18.4238C25.0213 18.5034 25.268 18.6465 25.4562 18.7416L25.7985 18.9146V20.5616V22.2086H29.4205H33.0427L33.0644 20.5866L33.0863 18.9646L33.6613 18.6255L34.2363 18.2864L35.6231 19.0885C36.3885 19.531 37.0407 19.8597 37.0787 19.8219C37.2541 19.6467 40.6196 13.7301 40.5882 13.6519C40.5687 13.6031 39.9509 13.2194 39.2153 12.7992L37.8779 12.0352V11.3516V10.668L39.2153 9.90395C39.9509 9.48374 40.5687 9.10005 40.5882 9.05123C40.6196 8.97306 37.2541 3.05643 37.0787 2.88127C37.0407 2.84339 36.3885 3.17208 35.6231 3.61465L34.2363 4.41671L33.6613 4.07764L33.0863 3.7385L33.0645 2.07632L33.0427 0.414062H29.4206H25.7985V2.10133ZM30.2518 7.85124C31.1825 8.0482 32.2138 8.82098 32.627 9.63116C33.2077 10.7697 33.1726 12.1411 32.5348 13.2279C32.4205 13.4227 32.1331 13.7587 31.8962 13.9747C29.9119 15.7836 26.8547 14.9674 26.0011 12.4009C25.824 11.8686 25.824 10.8345 26.0011 10.3022C26.3213 9.33946 26.9898 8.55237 27.8434 8.13304C28.6534 7.73519 29.3295 7.65605 30.2518 7.85124ZM28.9793 10.2588C27.9724 10.7057 28.0579 12.1752 29.1091 12.4897C29.9048 12.7278 30.6302 12.1734 30.6302 11.3273C30.6302 10.4849 29.7513 9.9161 28.9793 10.2588ZM15.2896 22.4103C16.4965 22.7345 17.7759 23.5853 18.5084 24.5509C20.8165 27.5929 19.8121 31.9632 16.4236 33.622C15.1974 34.2223 13.9084 34.4058 12.6696 34.1564C11.3628 33.8934 10.4622 33.4194 9.52771 32.5028C7.87817 30.8846 7.32293 28.5882 8.03769 26.3402C8.54816 24.7349 9.90433 23.2981 11.5225 22.6483C12.6354 22.2014 14.155 22.1054 15.2896 22.4103ZM12.9945 24.7096C12.4332 24.8191 11.6894 25.2234 11.2442 25.661C10.5125 26.3804 10.1633 27.2135 10.1633 28.2404C10.1633 29.2672 10.5125 30.1003 11.2442 30.8197C12.6043 32.1566 14.7538 32.1757 16.1933 30.8635C17.6479 29.5374 17.7401 27.2487 16.3966 25.8142C15.5174 24.8755 14.2514 24.4645 12.9945 24.7096Z" fill="#FF0000"/>
</svg>
