<svg width="40" height="25" viewBox="0 0 40 25" fill="none" xmlns="http://www.w3.org/2000/svg">
<path fill-rule="evenodd" clip-rule="evenodd" d="M4.91825 0.770122C4.41017 1.04929 4.33674 1.32377 4.33674 2.94497V4.35132H3.54701C2.90338 4.35132 2.70258 4.3804 2.46161 4.50824C2.12916 4.68474 1.86414 5.13385 1.86414 5.52067C1.86414 5.9075 2.12916 6.35661 2.46161 6.5331C2.74371 6.68286 2.89829 6.69003 5.83079 6.69003C8.41406 6.69003 8.94994 6.70905 9.1906 6.80923C9.91208 7.1096 9.95022 8.21051 9.25781 8.74771C9.05109 8.90815 8.96193 8.91267 5.28667 8.95079C1.87396 8.98618 1.50457 9.00247 1.28421 9.12783C1.0051 9.28647 0.740234 9.76973 0.740234 10.1201C0.740234 10.507 1.00525 10.9561 1.3377 11.1326C1.62572 11.2854 1.77071 11.2895 6.93747 11.2907L12.2416 11.2921L12.5335 11.4662C13.2831 11.9133 13.2831 13.0044 12.5335 13.4516L12.2416 13.6256L6.93747 13.627C1.77071 13.6282 1.62572 13.6323 1.3377 13.7851C1.00525 13.9616 0.740234 14.4107 0.740234 14.7976C0.740234 15.1844 1.00525 15.6335 1.3377 15.81C1.60167 15.9501 1.77828 15.9669 2.98505 15.9669H4.33674V17.841C4.33674 20.5821 4.33644 20.5818 6.42024 20.6444L7.71693 20.6833L7.88132 21.1901C8.10865 21.8912 8.39847 22.3757 8.90663 22.9044C10.5887 24.6545 13.2947 24.6549 14.9764 22.9051C15.4851 22.3759 15.7748 21.8916 16.0025 21.1901L16.1671 20.6833H21.8697H27.5724L27.7369 21.1901C27.9645 21.8914 28.2543 22.3759 28.7623 22.9044C30.4445 24.6545 33.1504 24.6549 34.8321 22.9051C35.341 22.3757 35.6307 21.8914 35.8581 21.1901L36.0224 20.6833L37.1693 20.6444C38.4854 20.5996 38.7072 20.5222 38.9524 20.0222C39.0973 19.7267 39.103 19.5675 39.103 15.8305C39.103 11.6038 39.0896 11.4418 38.6729 10.6453C38.4091 10.141 37.7857 9.55721 37.2006 9.26675C36.2651 8.8022 36.2031 8.79729 31.2458 8.79604L26.7229 8.79487L26.424 8.62009C25.8314 8.27357 25.8409 8.34428 25.8409 4.2375V0.609375L15.5196 0.612805C5.39157 0.616235 5.19316 0.619119 4.91825 0.770122ZM28.0887 3.6497V6.45616H31.1607C32.8503 6.45616 34.2327 6.43347 34.2327 6.4058C34.2327 6.30711 33.293 4.77556 32.8544 4.15954C31.9671 2.91324 31.1058 2.12899 29.992 1.55367C29.5229 1.3113 28.291 0.843246 28.1222 0.843246C28.1038 0.843246 28.0887 2.10615 28.0887 3.6497ZM12.8069 17.7971C13.4923 18.1564 14.0024 18.9886 14.0024 19.7478C14.0024 20.5039 13.4922 21.3396 12.8138 21.6948C11.9037 22.1715 10.5944 21.6909 10.0856 20.6933C9.85191 20.2352 9.85191 19.2605 10.0856 18.8024C10.306 18.3703 10.8763 17.8614 11.2982 17.7204C11.7272 17.5771 12.4579 17.6142 12.8069 17.7971ZM32.6626 17.7971C33.348 18.1564 33.8581 18.9886 33.8581 19.7478C33.8581 20.5039 33.3479 21.3396 32.6695 21.6948C31.7594 22.1715 30.4502 21.6909 29.9413 20.6933C29.7076 20.2352 29.7076 19.2605 29.9413 18.8024C30.1617 18.3703 30.732 17.8614 31.1539 17.7204C31.5829 17.5771 32.3136 17.6142 32.6626 17.7971Z" fill="#909090"/>
</svg>
