<svg width="34" height="25" viewBox="0 0 34 25" fill="none" xmlns="http://www.w3.org/2000/svg">
<path fill-rule="evenodd" clip-rule="evenodd" d="M2.70164 0.512376C1.69702 0.656709 0.811821 1.34543 0.437294 2.27405L0.283235 2.65606L0.265326 10.4935C0.253626 15.6357 0.27049 18.4569 0.314413 18.6972C0.519259 19.8186 1.45754 20.7445 2.57425 20.9274C2.78812 20.9624 3.29677 20.9913 3.70456 20.9915C4.41839 20.9918 4.44741 20.9973 4.48427 21.1389C4.50532 21.2198 4.65153 21.5439 4.80919 21.8591C5.61046 23.4611 7.35008 24.3441 9.10715 24.0409C10.573 23.7879 11.7884 22.8116 12.313 21.4658L12.4977 20.9918H17.6739H22.85L23.0021 21.3986C23.2094 21.953 23.7102 22.6829 24.1599 23.0859C24.5713 23.4547 25.3819 23.8736 25.938 24.0049C26.856 24.2217 27.9491 24.0551 28.9104 23.552C29.7364 23.1197 30.5582 22.1402 30.8089 21.2895L30.8869 21.0245L31.9701 20.9918C33.149 20.9563 33.2342 20.9302 33.5486 20.5091C33.6813 20.3314 33.6837 20.2577 33.7022 15.7413C33.7146 12.6926 33.6979 11.0608 33.6523 10.8764C33.6144 10.7233 33.0225 9.6683 32.332 8.52312C30.9137 6.17078 30.6961 5.90434 29.8723 5.51089L29.3695 5.27079L25.9284 5.25124L22.4873 5.2317L22.4594 3.94388C22.4347 2.79739 22.4152 2.61416 22.2822 2.27405C22.0001 1.55225 21.2954 0.880072 20.5456 0.617619C20.2412 0.511134 19.6233 0.502636 11.5582 0.493745C6.79496 0.488516 2.80949 0.496883 2.70164 0.512376ZM16.6585 5.64666C17.2478 5.94441 17.4204 6.5507 17.0556 7.04227C16.9516 7.18248 15.5176 8.64091 13.8692 10.2833C10.6006 13.5396 10.7 13.4598 10.1272 13.2882C9.79215 13.1878 6.42351 10.1851 6.2099 9.79636C5.95336 9.32963 6.09323 8.86101 6.59005 8.52286C6.83274 8.35767 7.31172 8.3261 7.5482 8.45978C7.62546 8.50344 8.22685 9.02456 8.88473 9.61777C9.54253 10.211 10.1513 10.7522 10.2375 10.8205L10.3943 10.9446L13.0189 8.32257C14.6587 6.68431 15.7292 5.66385 15.8722 5.60266C16.186 5.46827 16.3203 5.47578 16.6585 5.64666ZM29.0725 7.45912C29.2118 7.53024 29.3831 7.66993 29.4532 7.76962C29.5569 7.91709 30.7919 9.91795 30.8865 10.0917C30.9012 10.1186 29.0143 10.1407 26.6935 10.1407H22.4738V8.7353V7.32989H25.6464C28.678 7.32989 28.8304 7.33564 29.0725 7.45912ZM9.03421 17.8665C10.0024 18.1458 10.6505 19.0834 10.5606 20.0744C10.4009 21.8359 8.35961 22.6208 7.01321 21.4386C6.36958 20.8734 6.17533 19.7113 6.58946 18.9036C7.01791 18.0681 8.11711 17.6018 9.03421 17.8665ZM27.873 17.988C29.2394 18.6487 29.4868 20.4532 28.3511 21.4744C27.9485 21.8364 27.4955 21.998 26.9049 21.9903C25.8881 21.9769 25.0629 21.2599 24.9049 20.2525C24.7349 19.1681 25.3143 18.2236 26.3628 17.8763C26.7549 17.7464 27.4851 17.8005 27.873 17.988Z" fill="#909090"/>
</svg>
