<svg width="35" height="33" viewBox="0 0 35 33" fill="none" xmlns="http://www.w3.org/2000/svg">
<path d="M22.695 19.1973H5.80043C5.52178 19.1973 5.2959 19.4232 5.2959 19.7018V28.0914C5.2959 28.37 5.52178 28.5959 5.80043 28.5959H22.695C22.9736 28.5959 23.1995 28.37 23.1995 28.0914V19.7018C23.1995 19.4232 22.9736 19.1973 22.695 19.1973Z" fill="#474C5A"/>
<path d="M30.8365 13.4652C30.6174 13.9841 30.2109 14.1398 29.6689 14.1312C28.2504 14.111 26.832 14.1023 25.4135 14.134C24.5948 14.1513 24.1998 13.6785 24.2719 13.0097C24.2776 12.952 24.2661 12.8943 24.2632 12.8194H22.9745C22.9687 12.903 22.9601 12.9924 22.9572 13.0817C22.9543 13.5344 22.9601 13.987 22.9543 14.4397C22.9399 15.8264 22.0173 16.7432 20.6248 16.7432C18.0532 16.747 15.4815 16.747 12.9099 16.7432C11.1916 16.7432 9.47619 16.7461 7.7579 16.7432C6.8238 16.7403 6.0944 16.3511 5.69366 15.4948C5.54374 15.1748 5.47743 14.7914 5.4659 14.4339C5.43707 13.3758 5.45436 12.3149 5.45436 11.2568C5.45436 10.758 5.58987 10.6254 6.09728 10.6254H22.297C22.8419 10.6254 22.9514 10.7378 22.9514 11.2914V11.917H24.2661V11.5826C24.2719 10.9915 24.6063 10.6398 25.2002 10.6283C25.722 10.6167 26.2439 10.6254 26.7628 10.6254C27.7546 10.6254 28.7463 10.6398 29.7352 10.6196C30.2714 10.6081 30.6405 10.8013 30.825 11.3144C30.8365 12.0294 30.8365 12.7473 30.8365 13.4652ZM22.0692 11.522H6.33081C6.33081 12.508 6.32792 13.471 6.33081 14.4339C6.33369 15.3247 6.87858 15.8725 7.76943 15.8725C12.0651 15.8744 16.3609 15.8744 20.6566 15.8725C21.5359 15.8725 22.0721 15.3334 22.0779 14.4483C22.0837 13.5632 22.0779 12.6378 22.0779 11.7325C22.0791 11.6622 22.0762 11.5919 22.0692 11.522ZM25.1656 11.5076V13.2345H29.9428V11.5076H25.1656ZM22.173 16.0253H6.25008C6.22763 16.0253 6.20606 16.0166 6.18992 16.001C6.17378 15.9854 6.16434 15.9641 6.16359 15.9417V11.1789C6.16434 11.1565 6.17378 11.1352 6.18992 11.1196C6.20606 11.104 6.22763 11.0953 6.25008 11.0953H22.173C22.1952 11.0953 22.2165 11.1041 22.2321 11.1198C22.2478 11.1355 22.2566 11.1568 22.2566 11.1789V15.9417C22.2566 15.9639 22.2478 15.9852 22.2321 16.0008C22.2165 16.0165 22.1952 16.0253 22.173 16.0253Z" fill="#474C5A"/>
<path d="M14.2012 28.9993H5.25519C4.71318 28.9993 4.58633 28.8753 4.58633 28.342C4.58633 25.8318 4.58633 23.3197 4.58633 20.8057C4.58633 19.69 5.18888 18.8712 6.23254 18.5829C6.45558 18.5248 6.68536 18.4967 6.91582 18.4993C11.7766 18.4936 16.6384 18.4926 21.5011 18.4964C22.6456 18.4964 23.4759 19.1048 23.7614 20.1657C23.819 20.3848 23.8334 20.6212 23.8334 20.849C23.8392 23.3515 23.8402 25.8549 23.8363 28.3593C23.8363 28.8667 23.7037 28.9993 23.1992 28.9993H14.2012ZM22.9426 28.1113V22.8931H5.47431V28.1113H22.9426ZM5.47142 21.9763H22.9339C22.9339 21.4487 22.9801 20.9355 22.9224 20.431C22.8474 19.7736 22.2506 19.3671 21.478 19.3671H6.95042C6.83085 19.3662 6.71137 19.3739 6.59292 19.3902C5.97883 19.4853 5.5262 19.9293 5.47719 20.5492C5.44259 21.0162 5.47142 21.4861 5.47142 21.9763ZM23.8305 22.8931H4.58057V21.9763H23.8305V22.8931Z" fill="#474C5A"/>
<path d="M14.9985 6.00982C14.9985 6.76327 15.0018 7.51275 14.9985 8.2662C14.9953 8.74999 14.8113 9.00775 14.4927 8.99982C14.1741 8.99189 14.0033 8.73017 14.0033 8.27017C13.9989 6.75534 13.9989 5.24052 14.0033 3.72569C14.0033 3.28155 14.2069 3 14.5026 3C14.7982 3 14.9953 3.26966 14.9985 3.72172C15.0018 4.4831 14.9985 5.24845 14.9985 6.00982Z" fill="#474C5A"/>
<path d="M11.9956 7.03097C11.9956 7.45037 12.0022 7.86536 11.9924 8.28034C11.9826 8.69533 11.7929 8.99553 11.5052 8.99995C11.2174 9.00436 11.0114 8.73065 11.0082 8.29359C10.9973 7.43419 10.9973 6.57331 11.0082 5.71097C11.0114 5.28715 11.2371 4.99136 11.5117 5.00019C11.7864 5.00902 11.9858 5.3004 11.9956 5.73745C12.0054 6.17451 11.9956 6.59833 11.9956 7.03097Z" fill="#474C5A"/>
<path d="M17.9965 7.03554C17.9965 7.4505 18.0063 7.86988 17.9932 8.28485C17.9801 8.69981 17.7939 9 17.5031 9C17.2124 9 17.0163 8.73954 17.0098 8.28926C16.9967 7.4299 16.9967 6.56907 17.0098 5.70677C17.0163 5.26973 17.2418 4.9872 17.5129 5.00045C17.7841 5.01369 17.9801 5.2918 17.9899 5.74209C17.9997 6.19237 17.9965 6.60733 17.9965 7.03554Z" fill="#474C5A"/>
<rect x="4.58057" y="22" width="19.2586" height="0.836059" fill="white"/>
</svg>
