<svg width="32" height="33" viewBox="0 0 32 33" fill="none" xmlns="http://www.w3.org/2000/svg">
<g clip-path="url(#clip0_668_17421)">
<path d="M16 32.4922H0.258333C0.0583332 32.4922 0 32.4672 0 32.2422C0.00555556 21.7422 0.00555556 11.2394 0 0.733855C0 0.533855 0.0500001 0.492188 0.241667 0.492188H31.7583C31.9917 0.492188 32 0.567187 32 0.758854C31.9889 11.2477 31.9889 21.7422 32 32.2422C32 32.4589 31.95 32.4922 31.7417 32.4922H16Z" fill="#FEFEFE"/>
<path d="M11.5336 30.4995C11.9502 29.9078 11.9919 29.2911 11.9836 28.6495C11.9669 27.3578 11.9836 26.0661 11.9752 24.7828C11.9752 24.5661 12.0169 24.5078 12.2419 24.5078H16.7919C17.3002 24.5078 17.4669 24.3411 17.4669 23.8411V16.2078C17.4669 15.6995 17.3086 15.5328 16.8002 15.5328H11.7502C11.5419 15.5328 11.4669 15.4995 11.4752 15.2661C11.4836 14.1745 11.4752 13.0828 11.4836 11.9911C11.4802 11.6685 11.5413 11.3484 11.6632 11.0496C11.7852 10.7509 11.9655 10.4795 12.1937 10.2513C12.4219 10.0231 12.6933 9.84277 12.992 9.72083C13.2908 9.59889 13.6109 9.5378 13.9336 9.54115H17.9836C19.3919 9.54948 20.4586 10.5995 20.4586 11.9995V30.2495C20.4586 30.4161 20.4586 30.5078 20.2419 30.5078L11.5336 30.4995Z" fill="#474C5A"/>
<path d="M18.3496 14.3672H11.4746V30.4997H18.3496V14.3672Z" fill="#474C5A"/>
<path d="M10.9832 24.2754V28.9504C10.9832 29.9587 10.4332 30.5004 9.41652 30.5004H4.49152C3.56652 30.5004 2.99985 29.9337 2.99985 29.0087C2.99985 28.6754 2.85819 28.2421 3.05819 28.0587C3.25819 27.8754 3.67485 28.0087 3.99152 28.0087C5.11652 28.0004 6.23318 28.0087 7.35818 28.0087C7.80818 28.0004 7.98318 27.8337 7.98318 27.3921C7.99152 25.1337 7.99152 22.8837 7.98318 20.6254C7.98318 20.2004 7.80818 20.0254 7.37485 20.0254C6.00818 20.0254 4.63319 20.0171 3.26652 20.0254C3.04985 20.0337 2.97485 19.9837 2.99152 19.7587C3.00819 19.5337 2.98319 19.2837 3.04985 19.0504C3.21652 18.4754 3.69152 18.0337 4.28319 18.0421C5.29152 18.0421 6.06652 17.2337 5.99152 16.2671C5.97485 16.0754 6.03318 16.0254 6.22485 16.0254C6.74152 16.0421 7.26652 16.0421 7.78318 16.0337C7.94985 16.0254 8.00818 16.0671 7.99152 16.2337C7.89152 17.2171 8.69985 18.0504 9.72485 18.0421C10.4498 18.0421 10.9748 18.6837 10.9832 19.4504V24.2754Z" fill="#474C5A"/>
<path d="M2.99954 23.9842C2.99954 23.0759 3.00788 22.1759 2.99121 21.2759C2.99121 21.0676 3.04121 21.0176 3.24954 21.0176C4.41621 21.0259 5.57454 21.0259 6.74121 21.0176C6.94121 21.0176 6.99121 21.0676 6.99121 21.2759C6.9801 23.0981 6.9801 24.9259 6.99121 26.7592C6.99121 26.9592 6.94121 27.0176 6.74121 27.0092C5.57454 27.0009 4.41621 27.0009 3.24954 27.0092C3.04121 27.0176 2.99121 26.9592 2.99121 26.7592C3.00788 25.8342 2.99954 24.9092 2.99954 23.9842Z" fill="#474C5A"/>
<path d="M24.1085 26.5078C23.3169 26.5078 22.5169 26.4994 21.7169 26.5078C21.5252 26.5161 21.4502 26.4828 21.4502 26.2661C21.4669 25.0911 21.4585 23.9244 21.4502 22.7494C21.4502 22.5494 21.5085 22.5077 21.6919 22.5161C23.2669 22.5244 24.8502 22.5077 26.4252 22.5161C26.6878 22.5139 26.9483 22.5634 27.1918 22.6619C27.4353 22.7604 27.657 22.9059 27.8443 23.0901C28.0316 23.2742 28.1807 23.4935 28.2833 23.7353C28.3858 23.9771 28.4397 24.2368 28.4419 24.4994C28.4419 25.6161 27.5585 26.4994 26.4169 26.5078C25.6502 26.5161 24.8835 26.5078 24.1085 26.5078Z" fill="#474C5A"/>
<path d="M25.4169 28.5H21.7085C21.5002 28.5 21.4502 28.45 21.4502 28.2417C21.4585 27.5 21.4502 27.5 22.2085 27.5H29.1585C29.3918 27.5 29.4502 27.55 29.4418 27.7833C29.4335 28.5 29.4418 28.5 28.7169 28.5H25.4169Z" fill="#474C5A"/>
<path d="M14.9751 4.77526C14.9751 4.28359 14.9751 3.78359 14.9668 3.28359C14.9668 3.10859 15.0168 3.05859 15.1918 3.05859C15.7085 3.07526 16.2251 3.07526 16.7501 3.05859C16.9251 3.05859 16.9751 3.10859 16.9668 3.28359C16.9557 4.30026 16.9557 5.31692 16.9668 6.33359C16.9751 6.50859 16.9251 6.56692 16.7501 6.55859C16.2251 6.55026 15.7085 6.55026 15.1918 6.55859C15.0168 6.56692 14.9668 6.51692 14.9668 6.33359C14.9751 5.81692 14.9751 5.30026 14.9751 4.77526Z" fill="#474C5A"/>
<path d="M28.2669 29.5C28.2725 29.5161 28.2753 29.533 28.2752 29.55C28.1335 30.5 28.1335 30.5 27.1752 30.5C25.3669 30.5 23.5502 30.4917 21.7335 30.5083C21.4919 30.5083 21.4502 30.4417 21.4502 30.2167C21.4669 29.5 21.4502 29.5 22.1752 29.5H28.2669Z" fill="#474C5A"/>
<path d="M6.9669 15.0332C6.55024 15.0332 6.13357 15.0249 5.72524 15.0415C5.55857 15.0415 5.48357 15.0165 5.4919 14.8249C5.50857 14.4665 5.50857 14.0999 5.4919 13.7332C5.48357 13.5582 5.55024 13.5332 5.70024 13.5332C6.5669 13.5415 7.42524 13.5415 8.2919 13.5332C8.4669 13.5332 8.4919 13.5999 8.4919 13.7499C8.48357 14.1082 8.47523 14.4749 8.4919 14.8415C8.50023 15.0165 8.42523 15.0415 8.27523 15.0415L6.9669 15.0332Z" fill="#474C5A"/>
<path d="M25.4419 11.5503C25.4375 11.8163 25.3282 12.0698 25.1377 12.2555C24.9473 12.4413 24.6912 12.5442 24.4252 12.542C24.1643 12.5313 23.9175 12.4206 23.736 12.2329C23.5544 12.0452 23.4521 11.7948 23.4502 11.5337C23.4749 11.2854 23.5916 11.0554 23.7772 10.8887C23.9629 10.722 24.2041 10.6308 24.4536 10.6328C24.7031 10.6349 24.9428 10.7302 25.1257 10.9C25.3085 11.0697 25.4213 11.3017 25.4419 11.5503Z" fill="#474C5A"/>
<path d="M24.4419 19.5253C24.1752 19.5188 23.9217 19.4076 23.7362 19.2159C23.5507 19.0241 23.448 18.7671 23.4502 18.5003C23.4552 18.3034 23.5182 18.1122 23.6314 17.9509C23.7446 17.7896 23.9029 17.6654 24.0865 17.5938C24.2701 17.5221 24.4708 17.5064 24.6633 17.5484C24.8558 17.5905 25.0316 17.6884 25.1686 17.8301C25.3056 17.9717 25.3978 18.1506 25.4334 18.3444C25.4691 18.5382 25.4467 18.7383 25.369 18.9194C25.2914 19.1005 25.162 19.2546 24.997 19.3624C24.8321 19.4702 24.639 19.5269 24.4419 19.5253Z" fill="#474C5A"/>
<path d="M15.9918 8.55078H14.7168C14.5418 8.55912 14.4668 8.53412 14.4668 8.32578C14.4668 7.55078 14.4585 7.55078 15.2251 7.55078C15.9918 7.55078 16.5585 7.55911 17.2251 7.55078C17.3918 7.55078 17.4751 7.56745 17.4751 7.77578C17.4751 8.55078 17.4835 8.55078 16.7085 8.55078H15.9918Z" fill="#474C5A"/>
<path d="M13.8754 4.05916C12.4338 4.05916 12.4421 4.05916 12.4754 3.31749C12.4838 3.13416 12.5838 3.05083 12.9588 3.05916C13.6421 3.07583 14.3171 3.06749 15.0004 3.05916C15.2754 3.05916 15.3671 3.09249 15.3838 3.25083C15.4421 4.05916 15.4504 4.05916 13.8754 4.05916Z" fill="#474C5A"/>
<path d="M29.4252 15.0335C29.5244 15.0302 29.6223 15.0565 29.7065 15.109C29.7907 15.1615 29.8573 15.2379 29.898 15.3285C29.9386 15.419 29.9514 15.5196 29.9347 15.6174C29.918 15.7152 29.8725 15.8058 29.8042 15.8777C29.7358 15.9496 29.6476 15.9996 29.5507 16.0212C29.4539 16.0428 29.3528 16.0351 29.2603 15.9991C29.1679 15.9631 29.0882 15.9004 29.0315 15.8189C28.9748 15.7375 28.9436 15.641 28.9419 15.5418C28.9417 15.4112 28.9918 15.2856 29.0818 15.1909C29.1718 15.0963 29.2948 15.0399 29.4252 15.0335Z" fill="#030303"/>
<path d="M23.9166 25.0082C23.5999 25.0082 23.2916 25.0165 22.9749 25.0082C22.6582 24.9999 22.4499 24.7915 22.4582 24.5082C22.4666 24.2249 22.6666 24.0249 22.9832 24.0165C23.5416 24.0082 24.1082 24.0082 24.6666 24.0165C24.99 24.0238 25.3047 23.911 25.5499 23.6999C25.8416 23.4582 26.1249 23.4582 26.3249 23.6915C26.5249 23.9249 26.4749 24.2082 26.2082 24.4499C25.8252 24.7951 25.332 24.9929 24.8166 25.0082C24.5166 25.0165 24.2166 25.0082 23.9166 25.0082Z" fill="#FEFEFE"/>
</g>
<defs>
<clipPath id="clip0_668_17421">
<rect width="32" height="32" fill="white" transform="translate(0 0.5)"/>
</clipPath>
</defs>
</svg>
