<svg width="33" height="33" viewBox="0 0 33 33" fill="none" xmlns="http://www.w3.org/2000/svg">
<path d="M4.09082 16.2118C4.2529 15.7748 4.57002 15.5987 5.02103 15.6269C5.28881 15.648 5.54955 15.6269 5.81734 15.6339C5.96533 15.6409 6.02875 15.6128 6.01466 15.4436C6.00056 15.2745 6.00761 14.9997 6.01466 14.7742C6.0217 14.3302 6.2613 14.0977 6.69822 14.0977H8.78414C9.21401 14.0977 9.4536 14.3302 9.4677 14.7601C9.47474 14.9997 9.47475 15.2393 9.46065 15.4789C9.46065 15.6057 9.50293 15.6339 9.62273 15.6339C10.2358 15.648 10.2358 15.655 10.2358 15.042V14.8235C10.2429 14.3232 10.4684 14.0977 10.9687 14.0977H13.0053C13.4422 14.0977 13.6818 14.3302 13.6889 14.7742C13.6936 14.9997 13.6936 15.2252 13.6889 15.4507C13.6818 15.5916 13.71 15.648 13.865 15.6339C14.1328 15.6198 14.3936 15.6269 14.6614 15.6339C14.8023 15.6409 14.8587 15.6128 14.8446 15.4577C14.8305 15.3027 14.8375 14.9926 14.8446 14.7601C14.8587 14.3302 15.0983 14.0977 15.5211 14.0977H17.6281C18.0369 14.0977 18.2835 14.3302 18.2976 14.746C18.307 14.9856 18.307 15.2252 18.2976 15.4648C18.2906 15.6057 18.3399 15.6409 18.4667 15.6339C18.5936 15.6269 18.8543 15.6269 19.0446 15.6339C19.5308 15.6409 19.8339 15.9369 19.8339 16.4302V21.349C19.8339 21.8635 19.5308 22.1594 19.0094 22.1594H14.7882C11.5325 22.1594 8.27675 22.1524 5.02103 22.1665C4.57002 22.1665 4.2529 22.0185 4.09082 21.5816V16.2118Z" fill="#474C5A"/>
<path d="M4.09082 23.1191C4.2529 22.6892 4.56297 22.5342 5.02103 22.5412C7.10694 22.5553 9.19286 22.5483 11.2788 22.5483C11.8848 22.5483 12.1526 22.8161 12.1526 23.4221V28.1929C12.1526 28.799 11.8848 29.0738 11.2788 29.0738C9.19286 29.0738 7.10694 29.0668 5.02103 29.0809C4.56297 29.0809 4.2529 28.9329 4.09082 28.496V23.1191Z" fill="#474C5A"/>
<path d="M18.0577 4.5C18.0663 4.50976 18.0713 4.52221 18.0718 4.53524C18.052 4.55616 18.0282 4.57295 18.0018 4.58463C17.9755 4.59632 17.947 4.60268 17.9182 4.60333C17.8894 4.60399 17.8607 4.59893 17.8339 4.58845C17.807 4.57797 17.7825 4.56228 17.7617 4.54228C17.7674 4.52894 17.7698 4.51445 17.7688 4.5H18.0577Z" fill="#474C5A"/>
<path d="M17.7623 4.54297H18.0723C18.1584 4.55798 18.2402 4.59165 18.3119 4.64163L20.1794 5.7621C20.5599 5.98761 20.6445 6.29768 20.4331 6.69231C20.3062 6.93896 20.1723 7.1856 20.0244 7.4252C19.9609 7.5309 19.968 7.58728 20.0807 7.64366C20.1935 7.70003 20.4472 7.84802 20.6234 7.95373C20.7995 8.05943 20.7502 7.99601 20.7995 7.9044C20.9334 7.65775 21.0673 7.4111 21.2083 7.17151C21.4197 6.80506 21.7368 6.71345 22.1032 6.91781C22.7656 7.3054 23.421 7.70003 24.0764 8.10171C24.3935 8.29198 24.471 8.61615 24.2878 8.9685C24.1751 9.20105 24.0482 9.41951 23.9143 9.63796C23.7804 9.85642 23.8579 9.81414 23.9777 9.87756C24.1491 9.9631 24.3161 10.0572 24.4781 10.1594C24.5838 10.2299 24.6402 10.2229 24.6965 10.1031C24.7529 9.98327 24.922 9.68729 25.0489 9.47588C25.2603 9.10944 25.5774 9.01078 25.9368 9.22219C26.6063 9.60978 27.2687 10.0115 27.9311 10.4131C28.0589 10.4835 28.1554 10.5996 28.2012 10.7382C28.2469 10.8767 28.2386 11.0275 28.1778 11.1601C28.0865 11.3554 27.9854 11.5459 27.8747 11.7309C27.7197 12.0128 27.7197 12.0128 28.0086 12.1749C28.0862 12.2153 28.1615 12.26 28.2341 12.3088C28.6781 12.5695 28.7838 12.9571 28.5231 13.4081L26.3878 17.0655C26.3033 17.2135 26.2257 17.3544 26.1341 17.5024C25.8593 17.9605 25.4858 18.0662 25.0207 17.8055L22.4838 16.3538L13.0337 10.9417C12.8998 10.8641 12.7659 10.7866 12.6814 10.6598C12.5944 10.5484 12.5437 10.4129 12.5361 10.2718C12.5286 10.1307 12.5645 9.99059 12.6391 9.87052C13.4659 8.45641 14.2928 7.04466 15.1196 5.63526C15.331 5.26881 15.7116 5.17015 16.0921 5.36042C16.3035 5.46613 16.5149 5.58593 16.7193 5.71277C16.9237 5.83962 16.8743 5.7621 16.9307 5.64935C17.0717 5.38156 17.2196 5.12082 17.3747 4.86008C17.4592 4.70505 17.5649 4.56411 17.7623 4.54297Z" fill="#474C5A"/>
<path d="M20.7995 29.0735H13.8229C13.1887 29.0735 12.9209 28.8057 12.9209 28.1715V23.4429C12.9209 22.8087 13.1887 22.548 13.83 22.548C17.0293 22.548 20.2287 22.5409 23.428 22.548C23.6465 22.555 23.6958 22.4916 23.6747 22.2872C23.6641 22.0877 23.6641 21.8878 23.6747 21.6882C23.6817 21.2443 23.9213 21.0117 24.3582 21.0117H26.4441C26.874 21.0117 27.1136 21.2372 27.1277 21.6671C27.1348 21.9137 27.1348 22.1674 27.1277 22.4141C27.1207 22.5127 27.1559 22.548 27.2616 22.548C27.4801 22.5409 27.7056 22.5409 27.9311 22.548C28.1254 22.548 28.3119 22.6252 28.4493 22.7626C28.5867 22.9001 28.664 23.0865 28.664 23.2809C28.664 24.9651 28.671 26.6564 28.664 28.3406C28.6569 28.7916 28.3257 29.0735 27.8324 29.0735H20.7995Z" fill="#474C5A"/>
<path d="M11.9625 21.3921H5.10574C4.90843 21.3921 4.85205 21.3498 4.85205 21.1454C4.86614 19.6373 4.86614 18.1222 4.85205 16.6142C4.85205 16.431 4.90138 16.3887 5.07756 16.3887H18.8474C19.0166 16.3887 19.0729 16.4239 19.0729 16.6071C19.0589 18.1293 19.0659 19.6514 19.0729 21.1665C19.0729 21.3498 19.0236 21.3921 18.8474 21.3921H11.9625Z" fill="#474C5A"/>
<path d="M7.75542 14.8664C8.00911 14.8664 8.2628 14.8735 8.52354 14.8594C8.64334 14.8594 8.69972 14.8805 8.70676 15.0285C8.71381 15.6346 8.72086 15.6346 8.12186 15.6346C7.74837 15.6346 7.36783 15.6275 6.99434 15.6346C6.8393 15.6416 6.77588 15.6134 6.77588 15.4302C6.78293 14.8664 6.76883 14.8664 7.34669 14.8664H7.75542Z" fill="white"/>
<path d="M11.9766 15.6345C11.7017 15.6345 11.4339 15.6275 11.1591 15.6345C11.0323 15.6416 11.0041 15.5993 10.997 15.4725C10.9829 14.8664 10.9759 14.8664 11.5749 14.8664C11.9695 14.8664 12.3642 14.8735 12.7517 14.8594C12.8927 14.8594 12.9209 14.9017 12.9279 15.0356C12.935 15.6345 12.942 15.6345 12.3571 15.6345H11.9766Z" fill="white"/>
<path d="M16.5855 14.8664C16.8462 14.8664 17.107 14.8735 17.3748 14.8594C17.5016 14.8594 17.5298 14.9087 17.5298 15.0285C17.5509 15.6345 17.5509 15.6345 16.9519 15.6345C16.5714 15.6345 16.1838 15.6275 15.8033 15.6345C15.6412 15.6416 15.606 15.5852 15.606 15.4372C15.606 14.8664 15.5989 14.8664 16.1768 14.8664H16.5855Z" fill="white"/>
<path d="M8.12187 28.3049C7.1071 28.3049 6.09233 28.2979 5.07756 28.312C4.90138 28.312 4.85205 28.2697 4.85205 28.0865C4.86614 26.5714 4.86614 25.0492 4.85205 23.5341C4.85205 23.3509 4.89433 23.3086 5.07756 23.3086C7.1071 23.3133 9.13664 23.3133 11.1662 23.3086C11.3424 23.3086 11.3917 23.3509 11.3917 23.5271C11.3846 25.0492 11.3846 26.5643 11.3917 28.0865C11.3917 28.2627 11.3494 28.312 11.1662 28.312C10.1514 28.2979 9.13664 28.3049 8.12187 28.3049Z" fill="#474C5A"/>
<path d="M25.401 17.1279L25.253 17.0434L13.5267 10.3417C13.3787 10.2571 13.3224 10.2078 13.4351 10.0245C14.1751 8.77017 14.915 7.50876 15.6408 6.24029C15.7395 6.07116 15.8029 6.07116 15.965 6.16277L27.6842 12.8645C27.8252 12.942 27.8745 12.9984 27.7758 13.1675C27.0288 14.4289 26.2959 15.6974 25.549 16.9659C25.5137 17.0293 25.5067 17.1279 25.401 17.1279Z" fill="#474C5A"/>
<path d="M19.7074 6.4159C19.6087 6.59912 19.4889 6.78234 19.3973 6.97966C19.3057 7.17698 19.2493 7.16993 19.0872 7.07127C18.6221 6.78939 18.15 6.5216 17.6778 6.26086C17.551 6.19039 17.5157 6.14106 17.6003 6.00717C17.7122 5.83506 17.8134 5.65619 17.9033 5.4716C17.9667 5.3518 18.0231 5.3518 18.1218 5.41522L19.6017 6.30315C19.6439 6.32429 19.7074 6.33838 19.7074 6.4159Z" fill="white"/>
<path d="M23.5475 8.72753C23.4277 8.9319 23.3079 9.15035 23.1811 9.36176C23.1458 9.41109 23.0895 9.35472 23.0542 9.33358L21.518 8.45975C21.4264 8.40337 21.4123 8.36109 21.4616 8.26948C21.5665 8.1091 21.6607 7.94196 21.7435 7.76914C21.8069 7.64934 21.8633 7.66343 21.9619 7.71981L23.4418 8.60773C23.4841 8.63592 23.5475 8.64297 23.5475 8.72753Z" fill="white"/>
<path d="M27.3882 11.0262C27.2825 11.2024 27.1838 11.3997 27.0711 11.5759C27.0288 11.6393 26.9654 11.5759 26.9231 11.5477L25.408 10.6879C25.2952 10.6245 25.3093 10.5752 25.3586 10.4765C25.6335 9.92687 25.6335 9.92687 26.169 10.244L27.2543 10.8923C27.3036 10.9275 27.3741 10.9416 27.3882 11.0262Z" fill="white"/>
<path d="M20.8203 23.3164H27.6559C27.8603 23.3164 27.9026 23.3657 27.9026 23.5631C27.8932 25.0805 27.8932 26.5909 27.9026 28.0943C27.9026 28.2846 27.8462 28.3198 27.677 28.3198C23.0871 28.3151 18.4971 28.3151 13.9072 28.3198C13.7239 28.3198 13.6817 28.2705 13.6887 28.0943C13.6958 26.5721 13.6958 25.057 13.6887 23.5349C13.6817 23.3516 13.738 23.3164 13.9142 23.3164H20.8203Z" fill="#474C5A"/>
<path d="M25.4008 22.5474C25.133 22.5474 24.8582 22.5404 24.5904 22.5474C24.4776 22.5474 24.4424 22.5192 24.4353 22.3994C24.4072 21.7793 24.4072 21.7793 25.0202 21.7793H26.19C26.3239 21.7793 26.3592 21.8145 26.3662 21.9555C26.3733 22.5545 26.3803 22.5545 25.7813 22.5545L25.4008 22.5474Z" fill="white"/>
</svg>
