<svg width="22" height="22" viewBox="0 0 22 22" fill="none" xmlns="http://www.w3.org/2000/svg">
<path d="M6.18738 0.703569C5.71472 -0.0278234 4.59753 -0.242939 3.86707 0.316361C1.50378 2.20938 -0.00012207 5.0489 -0.00012207 8.23261H10.9999L6.18738 0.703569ZM21.3124 4.10239H19.2499C17.703 4.10239 16.4999 5.35006 16.4999 6.85587V9.60935H-0.00012207C-0.00012207 11.8035 0.988159 13.7826 2.578 15.2454C1.0741 15.6326 -0.00012207 16.9663 -0.00012207 18.5582C-0.00012207 20.4942 1.50378 22 3.43738 22C5.328 22 6.87488 20.4942 6.87488 18.5582C6.87488 18.214 6.78894 17.8268 6.66003 17.4826C7.60535 17.7407 8.59363 17.8698 9.62488 17.8698C10.6132 17.8698 11.6014 17.7407 12.5468 17.4826C12.4178 17.8268 12.3749 18.214 12.3749 18.5582C12.3749 20.4942 13.8788 22 15.8124 22C17.703 22 19.2499 20.4942 19.2499 18.5582C19.2499 16.9663 18.1327 15.6326 16.6288 15.2454C18.2616 13.7826 19.2499 11.8035 19.2499 9.60935V6.85587H21.3124C21.6561 6.85587 21.9999 6.55471 21.9999 6.1675V4.79076C21.9999 4.44658 21.6561 4.10239 21.3124 4.10239ZM3.43738 19.9349C2.66394 19.9349 2.06238 19.3326 2.06238 18.5582C2.06238 17.8268 2.66394 17.1814 3.43738 17.1814C4.16785 17.1814 4.81238 17.8268 4.81238 18.5582C4.81238 19.3326 4.16785 19.9349 3.43738 19.9349ZM17.1874 18.5582C17.1874 19.3326 16.5428 19.9349 15.8124 19.9349C15.0389 19.9349 14.4374 19.3326 14.4374 18.5582C14.4374 17.8268 15.0389 17.1814 15.8124 17.1814C16.5428 17.1814 17.1874 17.8268 17.1874 18.5582Z" fill="#474C5A"/>
</svg>
