<svg width="33" height="33" viewBox="0 0 33 33" fill="none" xmlns="http://www.w3.org/2000/svg">
<rect width="32" height="32" transform="translate(0.363647 0.5)" fill="white"/>
<path d="M11.1874 5.70357C10.7147 4.97218 9.59753 4.75706 8.86707 5.31636C6.50378 7.20938 4.99988 10.0489 4.99988 13.2326H15.9999L11.1874 5.70357ZM26.3124 9.10239H24.2499C22.703 9.10239 21.4999 10.3501 21.4999 11.8559V14.6094H4.99988C4.99988 16.8035 5.98816 18.7826 7.578 20.2454C6.0741 20.6326 4.99988 21.9663 4.99988 23.5582C4.99988 25.4942 6.50378 27 8.43738 27C10.328 27 11.8749 25.4942 11.8749 23.5582C11.8749 23.214 11.7889 22.8268 11.66 22.4826C12.6053 22.7407 13.5936 22.8698 14.6249 22.8698C15.6132 22.8698 16.6014 22.7407 17.5468 22.4826C17.4178 22.8268 17.3749 23.214 17.3749 23.5582C17.3749 25.4942 18.8788 27 20.8124 27C22.703 27 24.2499 25.4942 24.2499 23.5582C24.2499 21.9663 23.1327 20.6326 21.6288 20.2454C23.2616 18.7826 24.2499 16.8035 24.2499 14.6094V11.8559H26.3124C26.6561 11.8559 26.9999 11.5547 26.9999 11.1675V9.79076C26.9999 9.44658 26.6561 9.10239 26.3124 9.10239ZM8.43738 24.9349C7.66394 24.9349 7.06238 24.3326 7.06238 23.5582C7.06238 22.8268 7.66394 22.1814 8.43738 22.1814C9.16785 22.1814 9.81238 22.8268 9.81238 23.5582C9.81238 24.3326 9.16785 24.9349 8.43738 24.9349ZM22.1874 23.5582C22.1874 24.3326 21.5428 24.9349 20.8124 24.9349C20.0389 24.9349 19.4374 24.3326 19.4374 23.5582C19.4374 22.8268 20.0389 22.1814 20.8124 22.1814C21.5428 22.1814 22.1874 22.8268 22.1874 23.5582Z" fill="#474C5A"/>
</svg>
