<svg width="33" height="33" viewBox="0 0 33 33" fill="none" xmlns="http://www.w3.org/2000/svg">
<rect width="32" height="32" transform="translate(0.818359 0.5)" fill="white"/>
<path d="M9.99863 19.5216C9.99863 16.9625 9.99632 14.4103 9.9917 11.8649C9.9917 11.4239 10.1651 11.162 10.5743 10.9966C11.2333 10.7347 11.8853 10.4315 12.5511 10.1696C12.8216 10.0593 12.9326 9.9077 12.9118 9.61136C12.891 9.31501 12.9049 9.25299 13.2656 9.25299C13.7788 9.25299 14.2852 9.25988 14.7984 9.24609C14.9441 9.24609 15.0065 9.28744 14.9788 9.43217C14.8817 9.89392 15.1106 10.1007 15.5267 10.2454C16.1371 10.4659 16.7267 10.7554 17.3301 11.0035C17.7186 11.162 17.885 11.4239 17.885 11.8374V27.1508C17.885 27.8399 17.4897 28.2328 16.796 28.2328H11.0876C10.3871 28.2328 9.99863 27.8399 9.99863 27.1508V19.5216Z" fill="#474C5A"/>
<path d="M28.4377 22.3739V27.3132C28.4377 27.922 28.135 28.2333 27.5227 28.2333H20.2929C19.6875 28.2333 19.378 27.922 19.378 27.3132C19.378 24.0618 19.3848 20.8105 19.378 17.5591C19.3763 17.127 19.4752 16.7006 19.6669 16.3139C20.6162 14.4138 21.5609 12.5137 22.501 10.6136C22.5698 10.4683 22.6455 10.4199 22.8106 10.4199C23.5489 10.4291 24.285 10.4291 25.0188 10.4199C25.1632 10.4199 25.2458 10.4545 25.3146 10.5929C26.2593 12.5114 27.2109 14.4276 28.1694 16.3416C28.3532 16.7108 28.4475 17.1185 28.4445 17.5314C28.4399 19.1502 28.4377 20.7643 28.4377 22.3739Z" fill="#474C5A"/>
<path d="M22.081 4.66705H24.2398C24.3526 4.66059 24.464 4.69486 24.5532 4.76349L25.7998 5.68656C25.9112 5.76922 25.9808 5.845 25.953 5.98277C25.9494 6.00791 25.9494 6.0334 25.953 6.05854C26.134 6.81629 25.6396 7.33293 25.2705 7.89091C25.2217 7.97357 25.1521 7.96668 25.0685 7.96668H22.5963C22.5104 7.96506 22.4264 7.94132 22.3526 7.8978L19.8247 6.47186C19.7834 6.45228 19.7493 6.42063 19.7269 6.38119C19.7044 6.34176 19.6948 6.29645 19.6993 6.25142C19.7063 5.77611 19.7063 5.30768 19.6993 4.83237C19.6924 4.66704 19.762 4.66016 19.8943 4.66016L22.081 4.66705Z" fill="#474C5A"/>
<path d="M13.9917 8.82016H12.3324C12.1941 8.82016 12.125 8.80627 12.125 8.6257C12.1388 7.72981 12.125 6.82697 12.1319 5.93107C12.1337 5.59337 12.2686 5.27012 12.5069 5.03197C12.7453 4.79383 13.0678 4.66015 13.404 4.66016H14.5931C14.9239 4.66193 15.2409 4.79377 15.4761 5.02743C15.7113 5.26109 15.846 5.57799 15.8514 5.91024C15.8652 6.82002 15.8514 7.72981 15.8583 8.63959C15.8583 8.79238 15.803 8.82016 15.6717 8.82016H13.9917Z" fill="#474C5A"/>
<path d="M5.6928 28.2338C5.41997 28.2269 5.24946 27.9852 5.31085 27.6882C5.54957 26.5349 5.79511 25.3884 6.03383 24.2351C6.63404 21.3483 7.23653 18.4591 7.84129 15.5677C7.85687 15.528 7.86608 15.4861 7.86857 15.4434C7.87539 15.2293 7.96406 15.181 8.16186 15.25C8.35966 15.3191 8.59156 15.2639 8.68023 15.402C8.76889 15.5401 8.64612 15.7404 8.6052 15.913C7.77763 19.8772 6.94779 23.8437 6.11568 27.8125C6.05429 28.1026 5.91106 28.2407 5.6928 28.2338Z" fill="#474C5A"/>
<path d="M10.2952 8.20801C10.0921 9.16931 9.88913 10.1376 9.67911 11.1058C9.42009 12.3249 9.16107 13.5509 8.90905 14.7699C8.86704 14.965 8.82504 15.0555 8.59402 14.9789C8.36461 14.894 8.12413 14.8424 7.87996 14.8256C7.60694 14.8117 7.62794 14.6794 7.66995 14.4913C7.89397 13.4534 8.11098 12.4224 8.335 11.3845C8.55902 10.3466 8.81804 9.14841 9.04906 8.0269C9.08406 7.85972 9.14007 7.83882 9.28708 7.87365L10.1762 8.06869C10.2532 8.08263 10.3512 8.08263 10.2952 8.20801Z" fill="#474C5A"/>
<path d="M7.04612 12.4883C7.19456 12.546 7.26296 12.6139 7.2318 12.7363C7.20064 12.8586 7.09552 12.9258 6.95771 12.8954L5.82437 12.6537C5.70557 12.6317 5.56827 12.5486 5.53053 12.789C5.49278 13.0294 5.53002 13.0307 5.72052 13.0616C6.09517 13.1206 6.45944 13.2204 6.83486 13.2949C6.99724 13.3209 7.10008 13.3964 7.06487 13.5624C7.02967 13.7283 6.89338 13.7288 6.75558 13.6984C6.37661 13.6148 5.99562 13.553 5.62223 13.4567C5.43377 13.404 5.394 13.4773 5.35524 13.6341C5.31648 13.7909 5.37779 13.8405 5.52471 13.8674L6.95823 14.1655C7.2303 14.2172 7.36835 14.1267 7.42636 13.8575C7.79846 12.1012 8.16702 10.3359 8.53912 8.57961C8.60194 8.28221 8.50872 8.15049 8.20499 8.08489C7.72901 7.98129 7.24467 7.89668 6.77071 7.7713C6.54146 7.70822 6.58275 7.85489 6.54805 7.96812C6.51334 8.08136 6.53893 8.16064 6.68585 8.18749C7.07672 8.26121 7.45923 8.35392 7.8501 8.42763C8.00969 8.46005 8.11811 8.52287 8.08011 8.69513C8.04212 8.86738 7.90862 8.86156 7.77081 8.83116C7.41085 8.75593 7.04531 8.69336 6.68459 8.60268C6.51867 8.56747 6.41177 8.53555 6.36769 8.77317C6.32362 9.01078 6.4865 8.98418 6.60885 9.01533L7.64796 9.23064C7.80122 9.26028 7.95523 9.30537 7.90609 9.50295C7.85695 9.70054 7.72548 9.67293 7.57501 9.63696L6.5169 9.41329C6.37631 9.38923 6.24889 9.31805 6.20203 9.56199C6.15517 9.80594 6.26612 9.79428 6.42571 9.82671C6.80392 9.89485 7.18288 9.97844 7.56184 10.062C7.68419 10.0932 7.76804 10.1603 7.74398 10.3009C7.71992 10.4415 7.60415 10.4813 7.46711 10.4663L7.34475 10.4352C6.97846 10.3571 6.59747 10.2953 6.23674 10.2047C6.02016 10.1472 6.07133 10.3057 6.03587 10.4035C6.0004 10.5013 5.9923 10.5884 6.15467 10.6145C6.56099 10.6875 6.95617 10.7858 7.36604 10.8678C7.52841 10.8939 7.60112 10.9864 7.56793 11.1305C7.53475 11.2747 7.41823 11.299 7.28042 11.2686C6.89512 11.1822 6.50147 11.1148 6.11896 11.0221C5.95582 10.9806 5.89908 11.0236 5.86666 11.1832C5.83424 11.3428 5.87173 11.4122 6.0341 11.4383C6.40597 11.5037 6.77582 11.5908 7.1449 11.6625C7.30449 11.6949 7.44939 11.7435 7.40025 11.9411C7.35111 12.1387 7.20975 12.0992 7.06562 12.066C6.67754 11.986 6.28388 11.9186 5.90137 11.8259C5.71645 11.7823 5.72532 11.8996 5.70252 12.003C5.67972 12.1063 5.64781 12.2132 5.81651 12.2421C6.24462 12.3171 6.66437 12.411 7.04612 12.4883Z" fill="#474C5A"/>
<path d="M23.884 10.0985C23.5364 10.0985 23.1889 10.0914 22.8413 10.0985C22.7186 10.1056 22.6846 10.063 22.6846 9.93501C22.6914 9.47299 22.6914 9.01808 22.6846 8.55606C22.6846 8.42812 22.7186 8.39258 22.8413 8.39258C23.5501 8.39969 24.2656 8.39969 24.9812 8.39258C25.1038 8.39258 25.1379 8.42812 25.1379 8.55606C25.1311 9.01808 25.1311 9.47299 25.1379 9.93501C25.1379 10.063 25.1038 10.0985 24.9812 10.0985C24.6132 10.0914 24.252 10.0985 23.884 10.0985Z" fill="#474C5A"/>
<path d="M19.3782 5.31366C19.3782 5.94015 19.3782 5.93312 18.76 5.94016C18.5682 5.94016 18.5184 5.89792 18.5255 5.70786C18.5327 5.5178 18.5327 5.11656 18.5255 4.81387C18.5255 4.70124 18.5611 4.65197 18.6748 4.66605H18.7032C19.3782 4.64493 19.3782 4.64493 19.3782 5.31366Z" fill="#474C5A"/>
<path d="M20.2314 9.64677L20.8791 7.66805C20.8994 7.61289 20.9061 7.4819 21.0141 7.57153C21.122 7.66115 21.3582 7.66805 21.2839 7.81973C20.9736 8.45402 20.6228 9.06074 20.2922 9.67435L20.2314 9.64677Z" fill="#474C5A"/>
</svg>
