<svg width="32" height="33" viewBox="0 0 32 33" fill="none" xmlns="http://www.w3.org/2000/svg">
<path d="M15.9212 9.29102C11.7418 9.29102 8.34131 12.6915 8.34131 16.8709C8.34131 21.0505 11.7418 24.451 15.9212 24.451C20.1008 24.451 23.5013 21.0505 23.5013 16.8709C23.5013 12.6915 20.1008 9.29102 15.9212 9.29102ZM19.7993 12.1224C19.8844 12.0276 20.0047 11.9716 20.1323 11.9665C20.2425 11.954 20.384 12.0077 20.4765 12.0956C21.4592 13.026 22.1273 14.2104 22.4066 15.5206C22.4512 15.7297 22.3503 15.9426 22.1606 16.0406C21.697 16.2802 21.1464 16.3963 20.619 16.3963C19.9315 16.3963 19.2801 16.1992 18.9027 15.8217C18.0995 15.0191 18.4344 13.6363 19.7993 12.1224ZM12.0435 21.6936C11.9583 21.7885 11.8381 21.8449 11.7104 21.85C11.7048 21.8504 11.6984 21.8504 11.6918 21.8504C11.5706 21.8504 11.454 21.8042 11.3661 21.7209C10.3835 20.7905 9.71539 19.6062 9.43599 18.2955C9.39157 18.0863 9.49244 17.8736 9.68212 17.7755C10.7499 17.2245 12.2729 17.3272 12.9401 17.9943C13.7423 18.797 13.4073 20.1798 12.0435 21.6936ZM12.94 15.8217C12.5626 16.1992 11.9111 16.3964 11.2237 16.3964C10.6962 16.3964 10.1466 16.2802 9.68209 16.0406C9.4924 15.9426 9.39153 15.7297 9.43594 15.5206C9.71539 14.2104 10.3834 13.026 11.3661 12.0956C11.4586 12.0077 11.5946 11.9531 11.7104 11.9666C11.8379 11.9717 11.9582 12.0276 12.0434 12.1224C13.4082 13.6363 13.7432 15.0191 12.94 15.8217ZM17.9403 23.1884C17.2843 23.3976 16.6051 23.5036 15.9212 23.5036C15.2375 23.5036 14.5583 23.3976 13.9024 23.1884C13.6941 23.1218 13.5581 22.922 13.573 22.7041C13.6914 20.9992 14.7009 19.7135 15.9212 19.7135C17.1417 19.7135 18.1512 20.9992 18.2697 22.704C18.2845 22.922 18.1485 23.1218 17.9403 23.1884ZM14.0264 16.8709C14.0264 15.8259 14.8767 14.9761 15.9212 14.9761C16.966 14.9761 17.8163 15.8259 17.8163 16.8709C17.8163 17.9161 16.966 18.766 15.9212 18.766C14.8767 18.766 14.0264 17.9161 14.0264 16.8709ZM18.2697 11.0754C18.1512 12.7799 17.1417 14.0655 15.9212 14.0655C14.7009 14.0655 13.6914 12.7799 13.573 11.0754C13.5581 10.8576 13.6932 10.6577 13.9015 10.5915C15.2136 10.1723 16.6292 10.1723 17.9412 10.5915C18.1494 10.6577 18.2845 10.8576 18.2697 11.0754ZM22.4066 18.2201C22.1273 19.5308 21.4592 20.7151 20.4765 21.6456C20.3887 21.7288 20.272 21.7751 20.1509 21.7751C20.1444 21.7751 20.1378 21.7751 20.1323 21.7747C20.0047 21.7696 19.8844 21.7135 19.7993 21.6188C18.4344 20.105 18.0995 18.7217 18.9027 17.919C19.5697 17.2513 21.0919 17.15 22.1606 17.7001C22.3503 17.7981 22.4512 18.011 22.4066 18.2201Z" fill="#474C5A"/>
<path d="M15.9218 5.5C9.65195 5.5 4.55176 10.6007 4.55176 16.8699C4.55176 23.1393 9.65195 28.24 15.9218 28.24C22.1916 28.24 27.2917 23.1393 27.2917 16.8699C27.2917 10.6007 22.1916 5.5 15.9218 5.5ZM15.9218 25.3974C11.2194 25.3974 7.39426 21.5718 7.39426 16.8699C7.39426 12.1681 11.2194 8.34251 15.9218 8.34251C20.6241 8.34251 24.4493 12.1681 24.4493 16.8699C24.4493 21.5718 20.6241 25.3974 15.9218 25.3974Z" fill="#474C5A"/>
</svg>
