<svg width="127" height="126" viewBox="0 0 127 126" fill="none" xmlns="http://www.w3.org/2000/svg">
<g filter="url(#filter0_f_1_292)">
<path d="M63.7535 80.6035C73.6738 80.6035 81.7158 72.6538 81.7158 62.8473C81.7158 53.0408 73.6738 45.0911 63.7535 45.0911C53.8332 45.0911 45.7912 53.0408 45.7912 62.8473C45.7912 72.6538 53.8332 80.6035 63.7535 80.6035Z" fill="#AD69F0" fill-opacity="0.6"/>
</g>
<path d="M61.9622 74.1158C71.8825 74.1158 79.9245 66.1661 79.9245 56.3596C79.9245 46.5532 71.8825 38.6035 61.9622 38.6035C52.042 38.6035 44 46.5532 44 56.3596C44 66.1661 52.042 74.1158 61.9622 74.1158Z" fill="url(#paint0_linear_1_292)"/>
<g filter="url(#filter1_f_1_292)">
<path d="M75.6979 56.3596C75.6979 63.8414 69.559 69.9263 61.9621 69.9263C54.3651 69.9263 48.2263 63.8414 48.2263 56.3596C48.2263 48.8778 54.3651 42.7929 61.9621 42.7929C69.559 42.7929 75.6979 48.8778 75.6979 56.3596Z" stroke="url(#paint1_linear_1_292)" stroke-width="2"/>
</g>
<g filter="url(#filter2_f_1_292)">
<path d="M75.6979 56.3596C75.6979 63.8414 69.559 69.9263 61.9621 69.9263C54.3651 69.9263 48.2263 63.8414 48.2263 56.3596C48.2263 48.8778 54.3651 42.7929 61.9621 42.7929C69.559 42.7929 75.6979 48.8778 75.6979 56.3596Z" stroke="url(#paint2_linear_1_292)" stroke-width="2"/>
</g>
<g filter="url(#filter3_d_1_292)">
<path d="M61.9136 61.6841C64.5672 61.6841 66.7291 59.5471 66.7291 56.9239C66.7291 54.3007 64.5672 52.1637 61.9136 52.1637C59.2599 52.1637 57.0981 54.3007 57.0981 56.9239C57.0981 59.5471 59.2599 61.6841 61.9136 61.6841ZM58.2701 56.9239C58.2701 54.931 59.9097 53.3162 61.9196 53.3162C63.9296 53.3162 65.5692 54.937 65.5692 56.9239C65.5692 58.9108 63.9296 60.5315 61.9196 60.5315C59.9036 60.5315 58.2701 58.9108 58.2701 56.9239Z" fill="url(#paint3_linear_1_292)"/>
<path d="M66.7231 64.8296H57.1165C55.313 64.8296 53.8435 63.3769 53.8435 61.5941V52.2478C53.8435 50.4649 55.313 49.0123 57.1165 49.0123H66.7231C68.5267 49.0123 69.9962 50.4649 69.9962 52.2478V61.6001C69.9901 63.3829 68.5267 64.8296 66.7231 64.8296ZM57.1104 50.1948C55.9628 50.1948 55.0337 51.1132 55.0337 52.2478V61.6001C55.0337 62.7346 55.9628 63.653 57.1104 63.653H66.7171C67.8648 63.653 68.7938 62.7346 68.7938 61.6001V52.2478C68.7938 51.1132 67.8648 50.1948 66.7171 50.1948H57.1104V50.1948Z" fill="url(#paint4_linear_1_292)"/>
</g>
<defs>
<filter id="filter0_f_1_292" x="0.791222" y="0.0911255" width="125.925" height="125.512" filterUnits="userSpaceOnUse" color-interpolation-filters="sRGB">
<feFlood flood-opacity="0" result="BackgroundImageFix"/>
<feBlend mode="normal" in="SourceGraphic" in2="BackgroundImageFix" result="shape"/>
<feGaussianBlur stdDeviation="22.5" result="effect1_foregroundBlur_1_292"/>
</filter>
<filter id="filter1_f_1_292" x="38.2263" y="32.7929" width="47.4716" height="47.1334" filterUnits="userSpaceOnUse" color-interpolation-filters="sRGB">
<feFlood flood-opacity="0" result="BackgroundImageFix"/>
<feBlend mode="normal" in="SourceGraphic" in2="BackgroundImageFix" result="shape"/>
<feGaussianBlur stdDeviation="4.5" result="effect1_foregroundBlur_1_292"/>
</filter>
<filter id="filter2_f_1_292" x="32.2263" y="26.7929" width="59.4716" height="59.1334" filterUnits="userSpaceOnUse" color-interpolation-filters="sRGB">
<feFlood flood-opacity="0" result="BackgroundImageFix"/>
<feBlend mode="normal" in="SourceGraphic" in2="BackgroundImageFix" result="shape"/>
<feGaussianBlur stdDeviation="7.5" result="effect1_foregroundBlur_1_292"/>
</filter>
<filter id="filter3_d_1_292" x="52.8435" y="49.0123" width="20.1527" height="20.8173" filterUnits="userSpaceOnUse" color-interpolation-filters="sRGB">
<feFlood flood-opacity="0" result="BackgroundImageFix"/>
<feColorMatrix in="SourceAlpha" type="matrix" values="0 0 0 0 0 0 0 0 0 0 0 0 0 0 0 0 0 0 127 0" result="hardAlpha"/>
<feOffset dx="1" dy="3"/>
<feGaussianBlur stdDeviation="1"/>
<feComposite in2="hardAlpha" operator="out"/>
<feColorMatrix type="matrix" values="0 0 0 0 0 0 0 0 0 0 0 0 0 0 0 0 0 0 0.14 0"/>
<feBlend mode="normal" in2="BackgroundImageFix" result="effect1_dropShadow_1_292"/>
<feBlend mode="normal" in="SourceGraphic" in2="effect1_dropShadow_1_292" result="shape"/>
</filter>
<linearGradient id="paint0_linear_1_292" x1="69.0755" y1="39.2952" x2="54.1976" y2="75.8009" gradientUnits="userSpaceOnUse">
<stop stop-color="#3A55D2"/>
<stop offset="0.1308" stop-color="#4651D5"/>
<stop offset="0.3649" stop-color="#6548DE"/>
<stop offset="1" stop-color="#FF007A"/>
</linearGradient>
<linearGradient id="paint1_linear_1_292" x1="70.4497" y1="44.2362" x2="62.1387" y2="70.9812" gradientUnits="userSpaceOnUse">
<stop stop-color="#CAC2FF"/>
<stop offset="1" stop-color="white" stop-opacity="0"/>
</linearGradient>
<linearGradient id="paint2_linear_1_292" x1="70.4497" y1="44.2362" x2="62.1387" y2="70.9812" gradientUnits="userSpaceOnUse">
<stop stop-color="#CAC2FF"/>
<stop offset="1" stop-color="white" stop-opacity="0"/>
</linearGradient>
<linearGradient id="paint3_linear_1_292" x1="61.9136" y1="52.1637" x2="61.9136" y2="61.6841" gradientUnits="userSpaceOnUse">
<stop stop-color="white" stop-opacity="0.88"/>
<stop offset="1" stop-color="white" stop-opacity="0.85"/>
</linearGradient>
<linearGradient id="paint4_linear_1_292" x1="61.9198" y1="49.0123" x2="61.9198" y2="64.8295" gradientUnits="userSpaceOnUse">
<stop stop-color="white"/>
<stop offset="0.0001" stop-color="white"/>
<stop offset="1" stop-color="white" stop-opacity="0.88"/>
</linearGradient>
</defs>
</svg>
