<?xml version="1.0" standalone="no"?>
<!DOCTYPE svg PUBLIC "-//W3C//DTD SVG 1.0//EN" "http://www.w3.org/TR/2001/REC-SVG-20010904/DTD/svg10.dtd">
<svg xmlns="http://www.w3.org/2000/svg" xmlns:xlink="http://www.w3.org/1999/xlink" id="body_1" width="127" height="126">

<g transform="matrix(1 0 0 1 0 0)">
	<g>
        <path d="M63.7535 80.6035C 73.6738 80.6035 81.7158 72.6538 81.7158 62.8473C 81.7158 53.0408 73.6738 45.0911 63.7535 45.0911C 53.8332 45.0911 45.7912 53.0408 45.7912 62.8473C 45.7912 72.6538 53.8332 80.6035 63.7535 80.6035z" stroke="none" fill="#AD69F0" fill-rule="nonzero" fill-opacity="0.6" />
	</g>
    <path d="M61.9622 74.1158C 71.8825 74.1158 79.9245 66.1661 79.9245 56.3596C 79.9245 46.5532 71.8825 38.6035 61.9622 38.6035C 52.042 38.6035 44 46.5532 44 56.3596C 44 66.1661 52.042 74.1158 61.9622 74.1158z" stroke="none" fill="none" />
	<g>
        <path d="M75.6979 56.3596C 75.6979 63.8414 69.559 69.9263 61.9621 69.9263C 54.3651 69.9263 48.2263 63.8414 48.2263 56.3596C 48.2263 48.8778 54.3651 42.7929 61.9621 42.7929C 69.559 42.7929 75.6979 48.8778 75.6979 56.3596z" stroke="#000000" stroke-width="2" fill="none" stroke-opacity="0" />
	</g>
	<g>
        <path d="M75.6979 56.3596C 75.6979 63.8414 69.559 69.9263 61.9621 69.9263C 54.3651 69.9263 48.2263 63.8414 48.2263 56.3596C 48.2263 48.8778 54.3651 42.7929 61.9621 42.7929C 69.559 42.7929 75.6979 48.8778 75.6979 56.3596z" stroke="#000000" stroke-width="2" fill="none" stroke-opacity="0" />
	</g>
	<g>
        <path d="M61.9136 61.6841C 64.5672 61.6841 66.7291 59.5471 66.7291 56.9239C 66.7291 54.3007 64.5672 52.1637 61.9136 52.1637C 59.2599 52.1637 57.0981 54.3007 57.0981 56.9239C 57.0981 59.5471 59.2599 61.6841 61.9136 61.6841zM58.2701 56.9239C 58.2701 54.931 59.9097 53.3162 61.9196 53.3162C 63.9296 53.3162 65.5692 54.937 65.5692 56.9239C 65.5692 58.9108 63.9296 60.5315 61.9196 60.5315C 59.9036 60.5315 58.2701 58.9108 58.2701 56.9239z" stroke="none" fill="none" />
        <path d="M66.7231 64.8296L57.1165 64.8296C 55.313 64.8296 53.8435 63.3769 53.8435 61.5941L53.8435 61.5941L53.8435 52.2478C 53.8435 50.4649 55.313 49.0123 57.1165 49.0123L57.1165 49.0123L66.7231 49.0123C 68.5267 49.0123 69.9962 50.4649 69.9962 52.2478L69.9962 52.2478L69.9962 61.6001C 69.9901 63.3829 68.5267 64.8296 66.7231 64.8296zM57.1104 50.1948C 55.9628 50.1948 55.0337 51.1132 55.0337 52.2478L55.0337 52.2478L55.0337 61.6001C 55.0337 62.7346 55.9628 63.653 57.1104 63.653L57.1104 63.653L66.7171 63.653C 67.8648 63.653 68.7938 62.7346 68.7938 61.6001L68.7938 61.6001L68.7938 52.2478C 68.7938 51.1132 67.8648 50.1948 66.7171 50.1948L66.7171 50.1948L57.1104 50.1948z" stroke="none" fill="none" />
	</g>
</g>
</svg>